<svg viewBox="0 0 82.22 67.54" xmlns="http://www.w3.org/2000/svg" role="img" aria-label="Louise"><path fill="#f3ae29" d="M49.3,14.27l3.23-11.99c.24-.89-.37-1.78-1.21-1.78h-3.67c-.56,0-1.06.4-1.21.99l-11.17,41.47c-.21.78-.98,1.19-1.67.9l-20.86-8.86c-1.08-.46-1.08-2.12,0-2.58l20.04-8.57c.36-.15.64-.48.75-.88l1.66-5.9c.31-1.11-.69-2.13-1.68-1.69L2.64,28.88c-1.29.57-2.14,1.94-2.14,3.46v2.76c0,1.52.85,2.89,2.14,3.46l29.17,12.77c.61.27.93.99.74,1.68l-3.3,12.26c-.24.89.37,1.78,1.21,1.78h3.67c.56,0,1.06-.4,1.21-.99l11.26-41.8c.21-.78.98-1.19,1.67-.9l21.21,9.07c1.07.46,1.07,2.12,0,2.58l-20.15,8.56c-.37.16-.65.49-.76.9l-1.59,5.94c-.3,1.11.7,2.1,1.68,1.68l30.89-13.52c1.29-.57,2.14-1.94,2.14-3.46v-2.76c0-1.52-.85-2.89-2.14-3.46l-29.54-12.93c-.61-.27-.93-.99-.74-1.68Z"/></svg>
